<?xml version="1.0" encoding="UTF-8" standalone="no"?>
<!-- Created with Inkscape (http://www.inkscape.org/) -->

<svg
   xmlns:dc="http://purl.org/dc/elements/1.1/"
   xmlns:cc="http://creativecommons.org/ns#"
   xmlns:rdf="http://www.w3.org/1999/02/22-rdf-syntax-ns#"
   xmlns:svg="http://www.w3.org/2000/svg"
   xmlns="http://www.w3.org/2000/svg"
   xmlns:sodipodi="http://sodipodi.sourceforge.net/DTD/sodipodi-0.dtd"
   xmlns:inkscape="http://www.inkscape.org/namespaces/inkscape"
   width="115.24525mm"
   height="61.361111mm"
   viewBox="0 0 115.24525 61.361111"
   version="1.1"
   id="svg4741"
   sodipodi:docname="logoWhite.svg"
   inkscape:version="0.92.4 (5da689c313, 2019-01-14)">
  <defs
     id="defs4735" />
  <sodipodi:namedview
     id="base"
     pagecolor="#ffffff"
     bordercolor="#666666"
     borderopacity="1.0"
     inkscape:pageopacity="0.0"
     inkscape:pageshadow="2"
     inkscape:zoom="1.6068182"
     inkscape:cx="190.48091"
     inkscape:cy="79.999996"
     inkscape:document-units="mm"
     inkscape:current-layer="layer1"
     showgrid="false"
     inkscape:window-width="1920"
     inkscape:window-height="1001"
     inkscape:window-x="-9"
     inkscape:window-y="-9"
     inkscape:window-maximized="1" />
  <metadata
     id="metadata4738">
    <rdf:RDF>
      <cc:Work
         rdf:about="">
        <dc:format>image/svg+xml</dc:format>
        <dc:type
           rdf:resource="http://purl.org/dc/dcmitype/StillImage" />
        <dc:title></dc:title>
      </cc:Work>
    </rdf:RDF>
  </metadata>
  <g
     inkscape:label="Layer 1"
     inkscape:groupmode="layer"
     id="layer1"
     transform="translate(-2.097614,-4.7599204)">
    <g
       aria-label="R"
       transform="scale(1.0205845,0.97983067)"
       style="font-style:normal;font-weight:normal;font-size:10.36987305px;line-height:1.25;font-family:sans-serif;letter-spacing:0px;word-spacing:0px;fill:#ffffff;fill-opacity:0.78431374;stroke:none;stroke-width:0.25924686"
       id="text3715">
      <path
         d="m 34.031041,18.508623 h 7.242709 q 7.242708,0 9.697452,0.559001 2.454744,0.559001 3.59705,2.867918 1.166611,2.284613 0.145826,7.315622 -0.899262,4.59353 -2.357526,6.173316 -1.458263,1.579785 -4.885182,1.895742 2.892222,0.753436 3.669963,2.017265 0.802045,1.263828 0.850654,2.333221 0.04861,1.045089 -0.923567,5.80875 L 49.002546,57.857433 H 39.499529 L 42.124403,44.781671 Q 42.756318,41.6221 42.391752,40.868663 42.05149,40.115227 39.937008,40.115227 L 36.388567,57.857433 H 26.156418 Z m 8.871103,6.732317 -1.749916,8.749581 q 1.725612,0 2.503352,-0.461784 0.802045,-0.486088 1.336742,-3.086658 l 0.413174,-2.163091 Q 45.794367,26.40755 45.235366,25.824245 44.676365,25.24094 42.902144,25.24094 Z"
         style="font-style:italic;font-variant:normal;font-weight:bold;font-stretch:normal;font-size:49.77539444px;font-family:Impact;-inkscape-font-specification:'Impact Bold Italic';letter-spacing:-5.18493652px;fill:#ffffff;fill-opacity:0.78431374;stroke-width:0.25924686"
         id="path4888" />
    </g>
    <g
       aria-label=" U"
       style="font-style:normal;font-weight:normal;font-size:10.58333302px;line-height:1.25;font-family:sans-serif;letter-spacing:0px;word-spacing:0px;fill:#ffffff;fill-opacity:0.78431374;stroke:none;stroke-width:0.26458332"
       id="text3715-8">
      <path
         d="m 78.749166,15.580874 -5.382618,26.838671 q -0.892968,4.564063 -1.562695,6.424414 -0.669726,1.835547 -2.530078,3.795117 -1.860352,1.934766 -4.464844,2.951758 -2.579687,0.992188 -5.829101,0.992188 -3.59668,0 -6.126758,-1.190625 -2.505273,-1.190625 -3.497461,-3.100586 -0.967383,-1.909961 -0.79375,-4.01836 0.173633,-2.133203 1.537891,-8.929687 l 4.7625,-23.76289 h 10.442773 l -6.027539,30.11289 q -0.520898,2.629297 -0.396875,3.373437 0.148828,0.719336 1.016992,0.719336 0.992188,0 1.438672,-0.79375 0.446485,-0.818554 1.041797,-3.819922 l 5.92832,-29.591991 z"
         style="font-style:italic;font-variant:normal;font-weight:bold;font-stretch:normal;font-size:50.79999924px;font-family:Impact;-inkscape-font-specification:'Impact Bold Italic';letter-spacing:-5.29166651px;fill:#ffffff;fill-opacity:0.78431374;stroke-width:0.26458332"
         id="path4885" />
    </g>
    <g
       aria-label=" S"
       style="font-style:normal;font-weight:normal;font-size:10.58333302px;line-height:1.25;font-family:sans-serif;letter-spacing:0px;word-spacing:0px;opacity:1;fill:#ffffff;fill-opacity:0.78431374;stroke:none;stroke-width:0.26458332"
       id="text3715-8-5">
      <path
         d="m 116.42344,28.686007 h -9.69863 l 0.59531,-2.976563 q 0.42168,-2.083594 0.14883,-2.654101 -0.24805,-0.570508 -1.11621,-0.570508 -0.94258,0 -1.5875,0.768945 -0.64493,0.768945 -0.94258,2.331641 -0.39688,2.009179 -0.0744,3.026172 0.32247,1.016992 2.48047,2.455664 6.12676,4.142382 7.4166,6.796484 1.26504,2.654101 0.0992,8.557617 -0.86816,4.291211 -2.28203,6.325195 -1.41387,2.033984 -4.56406,3.423047 -3.1502,1.364258 -6.970118,1.364258 -4.191992,0 -6.846093,-1.5875 -2.629297,-1.5875 -3.075782,-4.043164 -0.421679,-2.455664 0.496094,-6.970117 L 91.02344,42.30378 h 9.69863 l -0.967381,4.886523 q -0.471289,2.257227 -0.198437,2.902149 0.297656,0.644921 1.339458,0.644921 1.04179,0 1.71152,-0.818554 0.66973,-0.818555 0.99219,-2.43086 0.71933,-3.54707 -0.0248,-4.638476 -0.79375,-1.091406 -4.167186,-3.646289 -3.373438,-2.579688 -4.415234,-3.745508 -1.016993,-1.16582 -1.438672,-3.224609 -0.42168,-2.058789 0.223242,-5.258594 0.917773,-4.613672 2.505273,-6.746875 1.612305,-2.133203 4.489647,-3.323828 2.87735,-1.215429 6.59805,-1.215429 4.06797,0 6.64765,1.314648 2.6045,1.314648 3.1254,3.323828 0.5457,1.984375 -0.39688,6.77168 z"
         style="font-style:italic;font-variant:normal;font-weight:bold;font-stretch:normal;font-size:50.79999924px;font-family:Impact;-inkscape-font-specification:'Impact Bold Italic';letter-spacing:-5.29166651px;fill:#ffffff;fill-opacity:0.78431374;stroke-width:0.26458332"
         id="path4882" />
    </g>
    <g
       aria-label=" N"
       style="font-style:normal;font-weight:normal;font-size:10.58333302px;line-height:1.25;font-family:sans-serif;letter-spacing:0px;word-spacing:0px;opacity:1;fill:#ffffff;fill-opacity:0.78431374;stroke:none;stroke-width:0.26458332"
       id="text3715-8-6">
      <path
         d="M 99.145277,14.944231 91.108558,55.10302 H 81.955629 L 80.169691,36.84677 76.523402,55.10302 h -8.73125 l 8.036719,-40.158789 h 8.73125 l 2.232422,18.082617 3.621484,-18.082617 z"
         style="font-style:italic;font-variant:normal;font-weight:bold;font-stretch:normal;font-size:50.79999924px;font-family:Impact;-inkscape-font-specification:'Impact Bold Italic';letter-spacing:-5.29166651px;fill:#ffffff;fill-opacity:0.78431374;stroke-width:0.26458332"
         id="path4879" />
    </g>
    <path
       transform="matrix(1,0,-0.20798096,0.97813287,0,0)"
       style="opacity:1;fill:#ffffff;fill-opacity:0.78431374;stroke:#008080;stroke-width:0;stroke-linecap:square;stroke-linejoin:round;stroke-miterlimit:4;stroke-dasharray:none;stroke-dashoffset:0;stroke-opacity:0.41176471"
       d="m 38.281185,59.813625 h 87.160885 v 6.376032 H 38.281185 Z"
       id="rect4619-1" />
    <g
       aria-label="ERIK"
       style="font-style:normal;font-weight:normal;font-size:10.58333302px;line-height:1.25;font-family:sans-serif;letter-spacing:0px;word-spacing:0px;fill:#ffffff;fill-opacity:0.78431374;stroke:none;stroke-width:0.26458332"
       id="text4594">
      <path
         d="m 36.089605,12.373513 h 2.176611 l -0.201538,1.00459 h -0.871264 l -0.189136,0.95188 h 0.815454 l -0.192236,0.954981 H 36.812041 L 36.5919,16.388772 h 0.958081 l -0.201538,1.00459 h -2.263428 z"
         style="font-style:italic;font-variant:normal;font-weight:bold;font-stretch:normal;font-size:6.3499999px;font-family:Impact;-inkscape-font-specification:'Impact Bold Italic';letter-spacing:2.11666656px;fill:#ffffff;fill-opacity:0.78431374;stroke-width:0.26458332"
         id="path4869" />
      <path
         d="m 40.847971,12.373513 h 0.923974 q 0.923975,0 1.237134,0.07131 0.313159,0.07131 0.458887,0.365869 0.148828,0.291455 0.0186,0.933276 -0.114722,0.586011 -0.300757,0.787549 -0.186035,0.201538 -0.623217,0.241846 0.368969,0.09612 0.468188,0.257349 0.102319,0.16123 0.108521,0.297656 0.0062,0.133325 -0.117823,0.74104 l -0.26355,1.32395 h -1.212329 l 0.334864,-1.668115 q 0.08062,-0.403076 0.03411,-0.499194 -0.04341,-0.09612 -0.313159,-0.09612 l -0.452686,2.263428 h -1.305346 z m 1.131713,0.858863 -0.223242,1.116211 q 0.220142,0 0.319361,-0.05891 0.102319,-0.06201 0.170532,-0.393775 l 0.05271,-0.275952 q 0.04961,-0.238745 -0.0217,-0.313159 -0.07131,-0.07441 -0.297657,-0.07441 z"
         style="font-style:italic;font-variant:normal;font-weight:bold;font-stretch:normal;font-size:6.3499999px;font-family:Impact;-inkscape-font-specification:'Impact Bold Italic';letter-spacing:2.11666656px;fill:#ffffff;fill-opacity:0.78431374;stroke-width:0.26458332"
         id="path4871" />
      <path
         d="m 47.69303,12.373513 -1.00459,5.019849 h -1.305346 l 1.004589,-5.019849 z"
         style="font-style:italic;font-variant:normal;font-weight:bold;font-stretch:normal;font-size:6.3499999px;font-family:Impact;-inkscape-font-specification:'Impact Bold Italic';letter-spacing:2.11666656px;fill:#ffffff;fill-opacity:0.78431374;stroke-width:0.26458332"
         id="path4873" />
      <path
         d="m 53.449785,12.373513 -1.199926,2.266529 0.26665,2.75332 h -1.348755 l -0.09612,-2.151807 -0.430981,2.151807 h -1.305347 l 1.00459,-5.019849 h 1.305346 l -0.390673,1.950269 0.970483,-1.950269 z"
         style="font-style:italic;font-variant:normal;font-weight:bold;font-stretch:normal;font-size:6.3499999px;font-family:Impact;-inkscape-font-specification:'Impact Bold Italic';letter-spacing:2.11666656px;fill:#ffffff;fill-opacity:0.78431374;stroke-width:0.26458332"
         id="path4875" />
    </g>
    <path
       style="fill:#ffffff;fill-opacity:0.78431374;stroke:none;stroke-width:0.1234426px;stroke-linecap:butt;stroke-linejoin:miter;stroke-opacity:1"
       d="m 19.652104,66.12103 c 1.40717,-0.11002 1.828437,-0.97583 1.828437,-0.97583 l -0.03838,-0.54398 c 0,0 0.610351,-0.16097 0.778879,-0.35509 0.168531,-0.19412 -0.171146,-0.29878 0.07907,-0.70233 0.250225,-0.40355 0.85292,-0.5211 1.023967,-0.98338 0.171045,-0.46227 0.09428,-1.55021 0.08913,-1.77495 -0.0051,-0.22474 -0.09974,-0.95769 0.375227,-1.36637 0.474961,-0.40869 1.003515,-1.1213 0.93451,-1.49159 -0.06901,-0.37031 -0.66405,-0.29616 -0.541561,-0.99084 0.122488,-0.69466 0.454411,-1.30764 0.592212,-2.08914 0.587384,-0.0308 0.865713,-0.33978 0.926957,-0.68713 0.06124,-0.34733 0.273087,-1.29485 -0.720471,-2.00724 0.26543,-1.25143 0.163279,-1.17991 0.446645,-2.02528 0.610352,-0.16098 0.868232,-0.60794 1.082694,-1.06256 0.21446,-0.45462 -0.06407,-1.66766 -0.480423,-2.09921 -0.416338,-0.43155 0.589373,-4.10415 0.808867,-5.09509 0.791677,-0.17377 0.988312,-0.27339 1.087834,-0.83781 0.09953,-0.56443 -0.807197,-1.26151 -0.807197,-1.26151 0.247492,-1.65749 0.135286,-0.51334 0.492684,-1.52472 0.709979,0.0356 1.04704,-0.35259 1.159355,-0.73568 0.112319,-0.3831 -0.250436,-1.11857 -0.725504,-1.47093 0.155624,-1.1365 0.232179,-1.57067 0.35981,-2.04059 0.91679,-0.37556 1.253845,-0.76379 1.253845,-0.76379 l -0.07929,-0.81978 c 0,0 -0.513348,-0.13529 -0.702427,-0.84013 0.07393,-0.92706 0.59472,-2.3573 0.686586,-2.8783 0.924444,-0.41897 1.335543,-0.97322 1.335543,-0.97322 0,0 -0.237747,-1.69829 -0.707681,-1.82591 0.581932,-2.53863 0.382889,-1.4098 0.581932,-2.53863 0.630801,-0.0231 1.008756,-0.1355 1.138902,-0.87359 0.130146,-0.73809 -0.431755,-1.10576 -1.037074,-1.4811 0.23994,-0.85302 0.372708,-1.09822 0.37774,-1.63452 0.64098,-0.33466 1.294746,-0.48799 1.228259,-1.12645 -0.0665,-0.63846 -0.66426,-1.81826 -0.66426,-1.81826 0,0 0.433742,-2.96766 0.331494,-3.65719 -0.102251,-0.68953 -0.431866,-1.86681 -1.144574,-3.1564305 -0.712711,-1.2896 -1.6553,-2.798801 -2.684613,-3.562266 -1.029319,-0.763464 -1.483937,-0.977921 -2.388037,-1.182106 -0.904096,-0.204196 -2.804161,-0.09151 -3.197429,0.107707 -0.393271,0.199252 -1.307431,1.067701 -1.67249,2.122498 -0.365059,1.054797 -1.145822,6.2443575 -1.898901,8.4842175 -0.753077,2.23984 -1.720513,5.69538 -4.503698,9.547 -2.783184,3.85163 -8.1326789,10.07105 -10.6810539,12.84491 -2.548378,2.77386 -1.82057,2.45453 -1.664731,2.84015 0.15584,0.38561 3.205408,2.13203 3.46853,2.67086 0.263124,0.53883 2.710416,5.44702 2.899501,6.15188 0.189086,0.70484 -0.0151,1.60893 -0.124793,2.48492 -0.109691,0.87599 -1.049237,2.9039 -3.097485,2.5875 -2.048248,-0.31639 -3.061936,1.11648 -3.095077,1.5583 -0.03314,0.44181 -0.08913,1.77495 0.717955,2.27539 0.807092,0.50046 8.2955629,4.23828 9.0923769,4.28924 0.796818,0.051 3.458043,0.69928 5.322343,0.53558 0.329615,1.17728 0.38845,1.85916 0.843068,2.07362 0.454621,0.21446 1.312784,0.67915 1.312784,0.67915 z"
       id="path4662-3"
       inkscape:connector-curvature="0" />
    <g
       aria-label="RUN EAT SLEEP REPEAT"
       style="font-style:normal;font-weight:normal;font-size:10.58333302px;line-height:1.25;font-family:sans-serif;letter-spacing:0px;word-spacing:0px;fill:#ffffff;fill-opacity:0.78431374;stroke:none;stroke-width:0.26458332"
       id="text4594-7">
      <path
         d="m 27.587176,59.767525 h 0.718646 q 0.718647,0 0.962216,0.05547 0.243568,0.05547 0.356912,0.284565 0.115755,0.226688 0.01447,0.725882 -0.08923,0.455786 -0.233922,0.612538 -0.144694,0.156752 -0.484725,0.188102 0.286976,0.07476 0.364147,0.20016 0.07958,0.125402 0.0844,0.231511 0.0048,0.103697 -0.09164,0.576364 l -0.204983,1.029739 h -0.942923 l 0.260449,-1.297423 q 0.0627,-0.313504 0.02653,-0.388262 -0.03376,-0.07476 -0.243569,-0.07476 l -0.352088,1.760444 h -1.01527 z m 0.880221,0.668004 -0.173632,0.868164 q 0.171221,0 0.248391,-0.04582 0.07958,-0.04823 0.132636,-0.306269 l 0.041,-0.21463 q 0.03858,-0.18569 -0.01688,-0.243568 -0.05547,-0.05788 -0.231511,-0.05788 z"
         style="font-style:italic;font-variant:normal;font-weight:bold;font-stretch:normal;font-size:4.93888903px;font-family:Impact;-inkscape-font-specification:'Impact Bold Italic';letter-spacing:2.11666656px;fill:#ffffff;fill-opacity:0.78431374;stroke-width:0.26458332"
         id="path4834" />
      <path
         d="m 34.674082,59.767525 -0.52331,2.609316 q -0.08682,0.443728 -0.151929,0.624596 -0.06511,0.178455 -0.24598,0.368969 -0.180868,0.188102 -0.434082,0.286977 -0.250803,0.09646 -0.566718,0.09646 -0.349677,0 -0.595657,-0.115755 -0.243569,-0.115755 -0.340031,-0.301446 -0.09405,-0.18569 -0.07717,-0.390674 0.01688,-0.207394 0.149517,-0.868164 l 0.463021,-2.310281 h 1.015269 l -0.58601,2.927643 q -0.05064,0.255626 -0.03859,0.327973 0.01447,0.06994 0.09887,0.06994 0.09646,0 0.139871,-0.07717 0.04341,-0.07958 0.101285,-0.371381 l 0.576365,-2.877 z"
         style="font-style:italic;font-variant:normal;font-weight:bold;font-stretch:normal;font-size:4.93888903px;font-family:Impact;-inkscape-font-specification:'Impact Bold Italic';letter-spacing:2.11666656px;fill:#ffffff;fill-opacity:0.78431374;stroke-width:0.26458332"
         id="path4836" />
      <path
         d="m 39.450706,59.767525 -0.781348,3.904327 H 37.77949 l -0.173633,-1.774913 -0.3545,1.774913 h -0.848871 l 0.781347,-3.904327 h 0.848872 l 0.217041,1.758033 0.352089,-1.758033 z"
         style="font-style:italic;font-variant:normal;font-weight:bold;font-stretch:normal;font-size:4.93888903px;font-family:Impact;-inkscape-font-specification:'Impact Bold Italic';letter-spacing:2.11666656px;fill:#ffffff;fill-opacity:0.78431374;stroke-width:0.26458332"
         id="path4838" />
      <path
         d="m 44.957346,59.767525 h 1.69292 l -0.156752,0.781348 h -0.67765 l -0.147106,0.740351 H 46.303 l -0.149517,0.742763 h -0.634242 l -0.171221,0.858517 h 0.745174 l -0.156752,0.781348 h -1.760444 z"
         style="font-style:italic;font-variant:normal;font-weight:bold;font-stretch:normal;font-size:4.93888903px;font-family:Impact;-inkscape-font-specification:'Impact Bold Italic';letter-spacing:2.11666656px;fill:#ffffff;fill-opacity:0.78431374;stroke-width:0.26458332"
         id="path4840" />
      <path
         d="m 50.881877,59.767525 -0.20016,3.904327 h -1.039385 l 0.08923,-0.701766 h -0.364147 l -0.20016,0.701766 H 48.11581 l 1.297423,-3.904327 z m -1.039385,2.510441 q 0.05547,-0.66318 0.171221,-1.637453 -0.376204,1.118967 -0.518487,1.637453 z"
         style="font-style:italic;font-variant:normal;font-weight:bold;font-stretch:normal;font-size:4.93888903px;font-family:Impact;-inkscape-font-specification:'Impact Bold Italic';letter-spacing:2.11666656px;fill:#ffffff;fill-opacity:0.78431374;stroke-width:0.26458332"
         id="path4842" />
      <path
         d="m 55.528278,59.767525 -0.156752,0.781348 h -0.602892 l -0.624596,3.122979 h -1.015269 l 0.624595,-3.122979 h -0.60048 l 0.156752,-0.781348 z"
         style="font-style:italic;font-variant:normal;font-weight:bold;font-stretch:normal;font-size:4.93888903px;font-family:Impact;-inkscape-font-specification:'Impact Bold Italic';letter-spacing:2.11666656px;fill:#ffffff;fill-opacity:0.78431374;stroke-width:0.26458332"
         id="path4844" />
      <path
         d="m 62.776069,60.949193 h -0.942923 l 0.05788,-0.289388 q 0.041,-0.202572 0.01447,-0.258038 -0.02412,-0.05547 -0.108521,-0.05547 -0.09164,0 -0.15434,0.07476 -0.0627,0.07476 -0.09164,0.226687 -0.03859,0.195337 -0.0072,0.294211 0.03135,0.09887 0.241157,0.238745 0.595657,0.402732 0.721058,0.66077 0.12299,0.258037 0.0096,0.83199 -0.08441,0.417201 -0.221864,0.61495 -0.137459,0.197748 -0.443728,0.332796 -0.306269,0.132636 -0.67765,0.132636 -0.407555,0 -0.665593,-0.15434 -0.255626,-0.15434 -0.299034,-0.393085 -0.041,-0.238745 0.04823,-0.677651 l 0.05064,-0.255626 h 0.942923 l -0.09405,0.475079 q -0.04582,0.219453 -0.01929,0.282153 0.02894,0.0627 0.130225,0.0627 0.101285,0 0.166398,-0.07958 0.06511,-0.07958 0.09646,-0.236333 0.06994,-0.344854 -0.0024,-0.450963 -0.07717,-0.106109 -0.405143,-0.354501 -0.327973,-0.250803 -0.429259,-0.364146 -0.09887,-0.113344 -0.139871,-0.313504 -0.041,-0.20016 0.0217,-0.511252 0.08923,-0.448551 0.243568,-0.655946 0.156752,-0.207395 0.436494,-0.32315 0.279742,-0.118167 0.641477,-0.118167 0.395497,0 0.6463,0.127813 0.253214,0.127813 0.303857,0.32315 0.05305,0.192925 -0.03858,0.658358 z"
         style="font-style:italic;font-variant:normal;font-weight:bold;font-stretch:normal;font-size:4.93888903px;font-family:Impact;-inkscape-font-specification:'Impact Bold Italic';letter-spacing:2.11666656px;fill:#ffffff;fill-opacity:0.78431374;stroke-width:0.26458332"
         id="path4846" />
      <path
         d="m 66.549482,59.767525 -0.624596,3.122979 h 0.617361 l -0.156752,0.781348 h -1.63263 l 0.781347,-3.904327 z"
         style="font-style:italic;font-variant:normal;font-weight:bold;font-stretch:normal;font-size:4.93888903px;font-family:Impact;-inkscape-font-specification:'Impact Bold Italic';letter-spacing:2.11666656px;fill:#ffffff;fill-opacity:0.78431374;stroke-width:0.26458332"
         id="path4848" />
      <path
         d="m 69.531901,59.767525 h 1.69292 l -0.156752,0.781348 h -0.677651 l -0.147105,0.740351 h 0.634242 l -0.149517,0.742763 h -0.634242 l -0.171222,0.858517 h 0.745175 l -0.156752,0.781348 h -1.760444 z"
         style="font-style:italic;font-variant:normal;font-weight:bold;font-stretch:normal;font-size:4.93888903px;font-family:Impact;-inkscape-font-specification:'Impact Bold Italic';letter-spacing:2.11666656px;fill:#ffffff;fill-opacity:0.78431374;stroke-width:0.26458332"
         id="path4850" />
      <path
         d="m 73.703222,59.767525 h 1.69292 l -0.156751,0.781348 H 74.56174 l -0.147105,0.740351 h 0.634242 l -0.149517,0.742763 h -0.634242 l -0.171222,0.858517 h 0.745174 l -0.156751,0.781348 h -1.760444 z"
         style="font-style:italic;font-variant:normal;font-weight:bold;font-stretch:normal;font-size:4.93888903px;font-family:Impact;-inkscape-font-specification:'Impact Bold Italic';letter-spacing:2.11666656px;fill:#ffffff;fill-opacity:0.78431374;stroke-width:0.26458332"
         id="path4852" />
      <path
         d="m 77.874544,59.767525 h 1.022505 q 0.414789,0 0.624595,0.06511 0.209807,0.06511 0.296623,0.188102 0.08923,0.12299 0.09405,0.299034 0.0048,0.173633 -0.06994,0.540191 l -0.06752,0.340031 q -0.07476,0.373793 -0.185691,0.545014 -0.110932,0.171221 -0.337619,0.262861 -0.224276,0.09164 -0.557072,0.09164 H 78.42197 l -0.313504,1.572342 h -1.015269 z m 0.880222,0.668004 -0.197748,0.993566 q 0.04341,0.0024 0.07476,0.0024 0.139871,0 0.207395,-0.06752 0.06752,-0.06994 0.110932,-0.286977 l 0.06511,-0.320738 q 0.03859,-0.20016 -0.01206,-0.26045 -0.05064,-0.06029 -0.248392,-0.06029 z"
         style="font-style:italic;font-variant:normal;font-weight:bold;font-stretch:normal;font-size:4.93888903px;font-family:Impact;-inkscape-font-specification:'Impact Bold Italic';letter-spacing:2.11666656px;fill:#ffffff;fill-opacity:0.78431374;stroke-width:0.26458332"
         id="path4854" />
      <path
         d="m 85.455134,59.767525 h 0.718647 q 0.718646,0 0.962215,0.05547 0.243568,0.05547 0.356912,0.284565 0.115755,0.226688 0.01447,0.725882 -0.08923,0.455786 -0.233922,0.612538 -0.144694,0.156752 -0.484725,0.188102 0.286977,0.07476 0.364147,0.20016 0.07958,0.125402 0.0844,0.231511 0.0048,0.103697 -0.09164,0.576364 l -0.204983,1.029739 h -0.942923 l 0.260449,-1.297423 q 0.0627,-0.313504 0.02653,-0.388262 -0.03376,-0.07476 -0.243569,-0.07476 l -0.352088,1.760444 h -1.01527 z m 0.880222,0.668004 -0.173633,0.868164 q 0.171221,0 0.248391,-0.04582 0.07958,-0.04823 0.132636,-0.306269 l 0.041,-0.21463 q 0.03858,-0.18569 -0.01688,-0.243568 -0.05547,-0.05788 -0.23151,-0.05788 z"
         style="font-style:italic;font-variant:normal;font-weight:bold;font-stretch:normal;font-size:4.93888903px;font-family:Impact;-inkscape-font-specification:'Impact Bold Italic';letter-spacing:2.11666656px;fill:#ffffff;fill-opacity:0.78431374;stroke-width:0.26458332"
         id="path4856" />
      <path
         d="m 90.234171,59.767525 h 1.69292 l -0.156752,0.781348 h -0.67765 l -0.147106,0.740351 h 0.634242 l -0.149517,0.742763 h -0.634242 l -0.171221,0.858517 h 0.745174 l -0.156752,0.781348 h -1.760444 z"
         style="font-style:italic;font-variant:normal;font-weight:bold;font-stretch:normal;font-size:4.93888903px;font-family:Impact;-inkscape-font-specification:'Impact Bold Italic';letter-spacing:2.11666656px;fill:#ffffff;fill-opacity:0.78431374;stroke-width:0.26458332"
         id="path4858" />
      <path
         d="m 94.405489,59.767525 h 1.022504 q 0.41479,0 0.624596,0.06511 0.209807,0.06511 0.296623,0.188102 0.08923,0.12299 0.09405,0.299034 0.0048,0.173633 -0.06994,0.540191 l -0.06752,0.340031 q -0.07476,0.373793 -0.185691,0.545014 -0.110932,0.171221 -0.337619,0.262861 -0.224276,0.09164 -0.557072,0.09164 h -0.272507 l -0.313504,1.572342 h -1.01527 z m 0.880222,0.668004 -0.197748,0.993566 q 0.04341,0.0024 0.07476,0.0024 0.139871,0 0.207395,-0.06752 0.06752,-0.06994 0.110932,-0.286977 l 0.06511,-0.320738 q 0.03858,-0.20016 -0.01206,-0.26045 -0.05064,-0.06029 -0.248391,-0.06029 z"
         style="font-style:italic;font-variant:normal;font-weight:bold;font-stretch:normal;font-size:4.93888903px;font-family:Impact;-inkscape-font-specification:'Impact Bold Italic';letter-spacing:2.11666656px;fill:#ffffff;fill-opacity:0.78431374;stroke-width:0.26458332"
         id="path4860" />
      <path
         d="m 99.001246,59.767525 h 1.692924 l -0.15676,0.781348 h -0.677647 l -0.147105,0.740351 h 0.634242 l -0.14952,0.742763 h -0.634239 l -0.171222,0.858517 h 0.745171 l -0.156748,0.781348 h -1.760444 z"
         style="font-style:italic;font-variant:normal;font-weight:bold;font-stretch:normal;font-size:4.93888903px;font-family:Impact;-inkscape-font-specification:'Impact Bold Italic';letter-spacing:2.11666656px;fill:#ffffff;fill-opacity:0.78431374;stroke-width:0.26458332"
         id="path4862" />
      <path
         d="m 104.92578,59.767525 -0.20016,3.904327 h -1.03938 l 0.0892,-0.701766 h -0.36414 l -0.20016,0.701766 h -1.05145 l 1.29743,-3.904327 z m -1.03938,2.510441 q 0.0555,-0.66318 0.17122,-1.637453 -0.37621,1.118967 -0.51849,1.637453 z"
         style="font-style:italic;font-variant:normal;font-weight:bold;font-stretch:normal;font-size:4.93888903px;font-family:Impact;-inkscape-font-specification:'Impact Bold Italic';letter-spacing:2.11666656px;fill:#ffffff;fill-opacity:0.78431374;stroke-width:0.26458332"
         id="path4864" />
      <path
         d="m 109.57218,59.767525 -0.15675,0.781348 h -0.60289 l -0.6246,3.122979 h -1.01527 l 0.6246,-3.122979 h -0.60048 l 0.15675,-0.781348 z"
         style="font-style:italic;font-variant:normal;font-weight:bold;font-stretch:normal;font-size:4.93888903px;font-family:Impact;-inkscape-font-specification:'Impact Bold Italic';letter-spacing:2.11666656px;fill:#ffffff;fill-opacity:0.78431374;stroke-width:0.26458332"
         id="path4866" />
    </g>
    <path
       style="fill:#ffffff;fill-opacity:0.78431374;stroke:none;stroke-width:0.1234426px;stroke-linecap:butt;stroke-linejoin:miter;stroke-opacity:1"
       d="m 19.652104,66.12103 c 1.40717,-0.11002 1.828437,-0.97583 1.828437,-0.97583 l -0.03838,-0.54398 c 0,0 0.610351,-0.16097 0.778879,-0.35509 0.168531,-0.19412 -0.171146,-0.29878 0.07907,-0.70233 0.250225,-0.40355 0.85292,-0.5211 1.023967,-0.98338 0.171045,-0.46227 0.09428,-1.55021 0.08913,-1.77495 -0.0051,-0.22474 -0.09974,-0.95769 0.375227,-1.36637 0.474961,-0.40869 1.003515,-1.1213 0.93451,-1.49159 -0.06901,-0.37031 -0.66405,-0.29616 -0.541561,-0.99084 0.122488,-0.69466 0.454411,-1.30764 0.592212,-2.08914 0.587384,-0.0308 0.865713,-0.33978 0.926957,-0.68713 0.06124,-0.34733 0.273087,-1.29485 -0.720471,-2.00724 0.26543,-1.25143 0.163279,-1.17991 0.446645,-2.02528 0.610352,-0.16098 0.868232,-0.60794 1.082694,-1.06256 0.21446,-0.45462 -0.06407,-1.66766 -0.480423,-2.09921 -0.416338,-0.43155 0.589373,-4.10415 0.808867,-5.09509 0.791677,-0.17377 0.988312,-0.27339 1.087834,-0.83781 0.09953,-0.56443 -0.807197,-1.26151 -0.807197,-1.26151 0.247492,-1.65749 0.135286,-0.51334 0.492684,-1.52472 0.709979,0.0356 1.04704,-0.35259 1.159355,-0.73568 0.112319,-0.3831 -0.250436,-1.11857 -0.725504,-1.47093 0.155624,-1.1365 0.232179,-1.57067 0.35981,-2.04059 0.91679,-0.37556 1.253845,-0.76379 1.253845,-0.76379 l -0.07929,-0.81978 c 0,0 -0.513348,-0.13529 -0.702427,-0.84013 0.07393,-0.92706 0.59472,-2.3573 0.686586,-2.8783 0.924444,-0.41897 1.335543,-0.97322 1.335543,-0.97322 0,0 -0.237747,-1.69829 -0.707681,-1.82591 0.581932,-2.53863 0.382889,-1.4098 0.581932,-2.53863 0.630801,-0.0231 1.008756,-0.1355 1.138902,-0.87359 0.130146,-0.73809 -0.431755,-1.10576 -1.037074,-1.4811 0.23994,-0.85302 0.372708,-1.09822 0.37774,-1.63452 0.64098,-0.33466 1.294746,-0.48799 1.228259,-1.12645 -0.0665,-0.63846 -0.66426,-1.81826 -0.66426,-1.81826 0,0 0.433742,-2.96766 0.331494,-3.65719 C 32.046164,12.07938 31.716549,10.90209 31.003841,9.6124795 33.405559,20.21197 22.510083,35.0869 22.289976,43.89543 c -0.2276,9.1084 -1.249554,13.74393 -4.793737,19.47283 0.329615,1.17728 0.38845,1.85916 0.843068,2.07362 0.454621,0.21446 1.312784,0.67915 1.312784,0.67915 z"
       id="path4662-3-0"
       inkscape:connector-curvature="0"
       sodipodi:nodetypes="ccccccccccccccccccccccccccccccsccccccscccc" />
  </g>
</svg>
